Coordinates
version=1
nRows=13
nColumns=34
inDegrees=yes

Units are S.I. units (second, meters, Newtons, ...)
If the header above contains a line with 'inDegrees', this indicates whether rotational values are in degrees (yes) or radians (no).

endheader
time	pelvis_tilt	pelvis_list	pelvis_rotation	pelvis_tx	pelvis_ty	pelvis_tz	hip_flexion_r	hip_adduction_r	hip_rotation_r	knee_angle_r	ankle_angle_r	subtalar_angle_r	mtp_angle_r	hip_flexion_l	hip_adduction_l	hip_rotation_l	knee_angle_l	ankle_angle_l	subtalar_angle_l	mtp_angle_l	lumbar_extension	lumbar_bending	lumbar_rotation	arm_flex_r	arm_add_r	arm_rot_r	elbow_flex_r	pro_sup_r	arm_flex_l	arm_add_l	arm_rot_l	elbow_flex_l	pro_sup_l
      4.96666670	     10.66361003	    -11.97666654	    -51.22990560	      2.45865519	      1.08913644	      7.36566803	      7.18345634	      3.65143750	    -16.75970569	     36.76451030	     -1.01660129	     11.56270905	      0.00000000	    -13.79267821	     11.67267591	      7.70183204	      0.00000000	      7.01172571	      6.38200896	      0.00000000	      4.64293983	    -16.38807597	     47.99496695	     11.81415326	     -7.54621569	     31.86553650	     96.71561301	    119.74817918	     -8.63951082	     17.54921911	     36.21716240	     68.46183201	    110.31620834
      4.98333330	     10.14667720	    -12.45436440	    -50.48951396	      2.46159808	      1.09044529	      7.37100851	      5.89286039	      4.40635817	    -17.84877549	     35.41369816	     -1.32245747	     13.10804201	      0.00000000	    -14.33498100	     10.70978386	     10.08549809	      0.00000000	      7.09161715	      4.03894074	      0.00000000	      4.72007524	    -16.02845481	     46.89495547	     10.86018266	     -6.55525446	     31.56466770	     97.05945047	    119.74817918	     -8.67420947	     16.52453654	     35.21911799	     70.00280828	    110.28318967
      5.00000000	      9.46781567	    -13.01529826	    -50.16548855	      2.46219726	      1.09188212	      7.37756342	      5.12647542	      5.91204267	    -17.52340661	     34.30585674	     -2.63736089	     12.77992081	      0.00000000	    -14.76313925	      9.46751810	     11.29665465	      0.00000000	      7.56759735	      2.70643893	      0.00000000	      5.06977074	    -15.50482504	     46.22268698	     10.02396448	     -5.82455569	     31.51768336	     97.26513771	    119.74817918	     -8.36745812	     15.03558805	     34.65575196	     71.97879602	    110.46481724
      5.01666670	      9.19274624	    -13.98010263	    -49.88282786	      2.46253036	      1.09416612	      7.38372624	      3.66277380	      7.53616221	    -16.62175718	     32.77110843	     -4.11907157	     12.04374880	      0.00000000	    -15.74579184	      8.28196459	     12.96826659	      0.00000000	      7.46445161	      0.52402430	      0.00000000	      4.84573318	    -15.02276930	     45.92506463	      9.55185261	     -5.46448488	     31.68754637	     97.60816804	    119.74817918	     -8.00838800	     13.71948278	     34.49979382	     73.82244918	    110.87493302
      5.03333330	      9.15715498	    -14.78585017	    -49.92182047	      2.46111287	      1.09584606	      7.38848622	      2.09209456	      8.74173777	    -15.34840012	     31.11872541	     -4.70471819	     12.50570063	      0.00000000	    -16.58973627	      7.48399435	     14.60548742	      0.00000000	      6.90721754	     -2.10711482	      0.00000000	      4.46012956	    -14.70895973	     45.84409447	      9.89072139	     -5.12689475	     31.64370257	     97.79184547	    119.74817918	     -7.26885562	     12.70779317	     33.70730452	     75.32690071	    111.47345414
      5.05000000	      9.24831762	    -15.01183773	    -49.90522061	      2.45868430	      1.09668551	      7.39295784	      1.16695566	      9.48325627	    -13.91858510	     29.97723077	     -3.96687191	     13.87697263	      0.00000000	    -16.95864911	      7.12934645	     15.46816798	      0.00000000	      6.71323622	     -3.53288015	      0.00000000	      4.41893488	    -14.80862918	     45.72306517	     10.39794452	     -4.22927370	     31.38024531	     97.67435616	    119.74817918	     -6.07025203	     11.29642243	     32.85050573	     77.25816481	    111.87251346
      5.06666670	      9.46662793	    -15.24564200	    -49.04853109	      2.45702263	      1.09740361	      7.39462054	      0.22846927	     10.06205462	    -13.36323773	     28.73420178	     -3.26375378	     14.93232582	      0.00000000	    -16.81607919	      6.89154550	     18.17335429	      1.01801690	      5.77865320	     -6.97111892	      0.00000000	      3.84444864	    -15.05759886	     44.65221109	     11.13227894	     -3.46209950	     31.20502485	     97.33596525	    119.74817918	     -4.74307985	     10.00057437	     31.65550901	     78.43060959	    113.76288182
      5.08333330	      9.69721334	    -15.12761600	    -48.85781829	      2.45509672	      1.09696887	      7.39571158	     -0.47652922	     10.30702046	    -12.25688413	     27.62854402	     -1.91180353	     15.55655727	      0.00000000	    -16.04444575	      7.22816658	     18.28872295	      2.64267320	      6.24744542	     -7.66640677	      0.00000000	      3.59437907	    -15.29317867	     44.46877217	     11.38869592	     -3.25031653	     30.65211385	     97.21644250	    119.74817918	     -3.46155569	      9.06477004	     30.83681440	     79.50809889	    113.94156096
      5.10000000	     10.11460922	    -14.63896613	    -47.93385836	      2.45358652	      1.09589726	      7.39606472	     -1.09421358	     10.19633450	    -11.80602944	     26.31024838	     -0.43450640	     15.43594414	      0.00000000	    -14.79868191	      7.88608541	     18.82779294	      4.85106044	      6.84245194	     -8.13575681	      0.00000000	      3.20427068	    -16.06242413	     43.21097434	     11.89813652	     -3.07221707	     30.48100677	     96.93608089	    119.74817918	     -2.33126372	      8.36941829	     29.92459773	     80.57204016	    114.47683271
      5.11666670	     10.50569885	    -14.49090437	    -47.53375248	      2.45271810	      1.09539188	      7.39671350	     -1.98736545	     10.21653352	    -11.20843289	     25.13294462	      0.70219384	     15.34841263	      0.00000000	    -13.89427262	      8.49952990	     18.36777583	      6.92380677	      6.89410972	     -8.99305789	      0.00000000	      2.84702366	    -16.30251788	     42.70869607	     11.97891341	     -3.17618014	     30.14690772	     96.69442412	    119.74817918	     -1.42965734	      7.79715478	     29.60155996	     81.32296704	    114.65145735
      5.13333330	     10.85178065	    -13.89885472	    -46.32868325	      2.45117460	      1.09332399	      7.39526274	     -2.18177132	     10.08583438	    -11.29103913	     24.08889826	      1.50339833	     13.48383188	      0.00000000	    -12.12511135	      9.35317621	     18.32361265	      9.76121129	      7.53682613	     -9.66889078	      0.00000000	      2.19106584	    -17.17897172	     40.87942113	     13.16714338	     -4.01448662	     30.74435421	     96.63851052	    119.74817918	     -0.25749165	      7.56240414	     29.04939209	     82.09394476	    115.38106804
      5.15000000	     11.43272275	    -13.63572925	    -45.80957283	      2.44951240	      1.09161653	      7.39529950	     -2.52261493	      9.80538845	    -11.46500899	     24.01174698	      2.69260861	     12.44460724	      0.00000000	    -11.21334243	     10.18177937	     17.56856844	     11.85731340	      7.89188198	    -10.40506474	      0.00000000	      1.38244499	    -17.88913614	     39.89350896	     14.42460307	     -5.04206447	     31.50838326	     96.91163704	    119.74817918	      1.07165286	      7.49721134	     29.31260631	     82.33773463	    115.78937642
      5.16666670	     11.82954181	    -13.30866491	    -45.29826180	      2.44701492	      1.09022196	      7.39590500	     -2.57935697	      9.60004694	    -11.85340687	     24.28099209	      3.61747438	     11.46944012	      0.00000000	    -10.01635647	     10.80475166	     16.58110120	     14.06729121	      8.02160447	    -11.03497350	      0.00000000	      0.53412751	    -18.60840793	     38.39203367	     15.98028200	     -5.74166269	     32.36867228	     96.63521321	    119.74817918	      2.46518652	      7.18222458	     30.10196632	     82.35596333	    116.24389267
